<svg version="1.1" id="brand-logo" xmlns="http://www.w3.org/2000/svg" xmlns:xlink="http://www.w3.org/1999/xlink" x="0px" y="0px"
	 width="100%" viewBox="0 0 500 500" enableBackground="new 0 0 500 500" xml:space="preserve">
<path fill="#0287EE" opacity="1.000000" stroke="none" 
	d="
M405.705963,304.754364 
	C409.353790,309.782043 414.522858,313.024811 417.785828,318.120667 
	C419.477203,320.762146 418.823547,321.620178 416.222198,321.973816 
	C401.241791,324.010376 386.251068,325.971436 371.273010,328.024963 
	C367.433044,328.551453 363.626190,329.319763 359.384338,329.905121 
	C355.984863,329.722504 353.170502,330.393860 350.237823,331.869202 
	C350.000458,332.110199 350.002289,332.001007 350.056885,332.002075 
	C349.827789,332.201538 349.565857,332.425110 349.180847,332.890381 
	C349.032379,333.102631 349.025696,333.032043 349.060974,333.035461 
	C347.339539,334.755310 347.965149,336.602448 348.742889,338.502258 
	C349.807373,341.102631 350.529449,343.827484 351.692261,346.757019 
	C356.663879,359.605377 361.515869,372.133667 366.318329,384.680847 
	C375.417786,408.454620 384.525269,432.225433 393.544159,456.029785 
	C395.605316,461.470093 397.145416,467.109375 399.247620,472.532166 
	C401.019226,477.102142 399.605194,480.329559 395.522675,482.908569 
	C379.415985,482.084351 363.660950,482.659698 347.460632,482.689331 
	C338.306519,481.451355 335.712860,474.393005 333.019318,467.564362 
	C324.996063,447.223785 317.067719,426.845795 309.119110,406.475861 
	C303.822968,392.903412 298.382568,379.382690 293.402191,365.694916 
	C292.219391,362.444244 290.604858,362.759399 288.306152,363.357086 
	C279.318237,365.694000 270.351624,368.144104 260.496307,368.066101 
	C251.001160,368.974091 241.935776,368.314606 232.422577,368.286987 
	C214.685944,367.335175 198.405746,362.524597 182.432480,356.199677 
	C167.810181,350.409668 154.896057,341.820862 142.095352,332.412537 
	C141.584518,331.569183 140.991806,331.512360 140.190094,331.225067 
	C139.939819,331.079803 139.999390,331.002441 139.966675,331.038391 
	C136.355927,332.559906 137.564194,335.778198 137.556244,338.320099 
	C137.466080,367.136017 137.499100,395.952301 137.499100,424.768494 
	C137.499084,439.926147 137.499069,455.083801 137.499130,470.699585 
	C137.614365,473.284729 137.413559,475.358398 136.250153,477.700439 
	C136.039093,478.095703 136.032440,478.018951 136.070923,478.017303 
	C135.803879,478.220337 135.533173,478.463257 135.142105,478.972931 
	C134.766159,479.504730 134.550690,479.813843 134.082336,480.272583 
	C133.517303,480.442322 133.207794,480.482635 132.708984,480.677216 
	C131.589127,482.033417 130.698624,483.319061 128.472107,482.908875 
	C115.284622,482.082245 102.461533,482.666687 89.202255,482.696198 
	C82.880852,480.955200 81.812897,476.093475 81.256233,470.472839 
	C81.656853,468.990326 81.495010,467.808411 81.494705,466.652405 
	C81.472908,383.732971 81.558815,300.813538 81.311485,217.421539 
	C81.119171,214.924286 81.072708,212.899612 81.096268,210.445709 
	C81.884857,205.933899 81.354500,201.821686 81.307793,197.341339 
	C82.465591,188.294022 81.973877,179.474152 83.908936,170.831055 
	C87.964844,152.715103 93.864059,135.368057 103.876122,119.614677 
	C107.819748,113.409622 107.919823,113.473427 102.685608,108.238785 
	C96.205063,101.757698 89.707428,95.293495 83.268028,88.771790 
	C82.529305,88.023628 81.009850,87.492867 81.486511,86.139465 
	C81.934212,84.868286 83.339378,85.120979 84.490585,84.927345 
	C100.791069,82.185646 117.081268,79.382599 133.371399,76.579575 
	C139.476257,75.529129 144.940735,73.486694 150.125549,69.627251 
	C163.946976,59.338955 179.436768,52.181118 195.898499,46.988842 
	C209.458710,42.711750 223.140091,39.579948 237.446457,39.820110 
	C237.710495,39.824543 237.980560,39.470585 238.604156,39.223862 
	C243.382614,39.883678 247.837250,39.317368 252.722504,39.500877 
	C256.192932,39.528343 259.214417,39.442135 262.651520,39.732697 
	C284.168640,43.246231 304.635101,48.649765 323.548187,58.897522 
	C345.145782,70.599854 363.409760,86.169380 378.035278,105.998680 
	C389.617096,121.701286 398.581726,138.687622 404.144989,157.415359 
	C407.792633,169.694687 410.092255,182.196442 410.088074,195.519363 
	C410.921875,202.692612 410.343048,209.428284 410.276672,216.603546 
	C409.152405,235.413651 404.532318,252.847061 397.152954,269.646606 
	C395.005676,274.534943 393.142548,279.516510 390.045135,283.923920 
	C389.194427,285.134430 389.018616,286.158173 390.107391,287.786194 
	C392.628052,291.555420 396.206573,294.238586 399.268158,297.858521 
	C399.871643,298.150208 400.253876,298.302185 400.839539,298.768738 
	C401.091797,298.960449 401.022614,298.971649 401.025604,298.936737 
	C401.217010,299.184052 401.433258,299.442780 401.889008,299.820587 
	C402.096466,299.966736 402.026245,299.973511 402.029480,299.938354 
	C402.218811,300.186157 402.435394,300.443451 402.889435,300.820801 
	C403.096527,300.966461 403.026276,300.973297 403.029419,300.938141 
	C403.216278,301.185425 403.433105,301.440033 403.885376,301.813965 
	C404.092468,301.957153 404.024078,301.974792 404.032288,301.940430 
	C404.221283,302.187805 404.434082,302.442780 404.885010,302.812653 
	C405.091156,302.954224 405.000000,303.000000 405.045624,302.976685 
	C405.412506,303.422882 405.494537,303.967102 405.705963,304.754364 
z"/>
<path fill="#88C7F7" opacity="1.000000" stroke="none" 
	d="
M81.083801,217.416626 
	C82.445511,217.962036 81.982414,219.393951 81.982788,220.663376 
	C82.007278,303.130402 82.011063,385.597443 82.007416,468.064484 
	C82.007401,468.557617 81.877632,469.050751 81.476013,469.820923 
	C81.096230,467.772583 81.007721,465.447174 81.007523,463.121765 
	C81.000526,381.375946 81.001831,299.630127 81.083801,217.416626 
z"/>
<path fill="#D5EBFC" opacity="1.000000" stroke="none" 
	d="
M137.571564,471.543274 
	C137.104828,428.902039 137.053635,385.791992 137.004242,342.681976 
	C136.998779,337.913116 137.003494,333.144257 137.003494,328.400360 
	C139.109207,328.137695 139.680252,329.483856 140.219879,330.764740 
	C138.071335,333.317780 137.980667,335.979279 137.981964,338.728058 
	C138.002899,382.843536 137.991592,426.959015 137.571564,471.543274 
z"/>
<path fill="#43A6F2" opacity="1.000000" stroke="none" 
	d="
M347.474792,482.908325 
	C347.774567,482.566956 348.538910,482.062286 349.301941,482.064209 
	C364.370331,482.102539 379.438568,482.199524 394.834595,482.566223 
	C379.421143,482.892181 363.679962,482.936523 347.474792,482.908325 
z"/>
<path fill="#48A8F2" opacity="1.000000" stroke="none" 
	d="
M89.244873,482.941956 
	C89.338959,482.564667 89.918724,482.018951 90.495926,482.021667 
	C102.809891,482.079254 115.123566,482.198395 127.767159,482.574463 
	C115.307793,482.905212 102.518578,482.967041 89.244873,482.941956 
z"/>
<path fill="#EFF8FE" opacity="1.000000" stroke="none" 
	d="
M232.178680,368.503357 
	C241.013199,368.079468 250.061737,368.035675 259.578735,368.049652 
	C257.415375,370.059509 254.423737,368.854858 251.624832,368.930756 
	C245.219254,369.104370 238.804016,368.921539 232.178680,368.503357 
z"/>
<path fill="#E8F4FE" opacity="1.000000" stroke="none" 
	d="
M351.912720,346.665771 
	C349.266327,343.713531 348.646027,339.518250 346.974640,335.775726 
	C346.318359,334.306091 346.803314,333.208496 348.712372,332.826630 
	C348.256195,337.842041 351.581146,341.733459 351.912720,346.665771 
z"/>
<path fill="#F8FAFD" opacity="1.000000" stroke="none" 
	d="
M410.485596,216.838013 
	C410.073120,210.338913 410.041382,203.624313 410.075592,196.443665 
	C411.991821,202.802765 410.640381,209.740326 410.485596,216.838013 
z"/>
<path fill="#DFF0FD" opacity="1.000000" stroke="none" 
	d="
M350.405151,332.072754 
	C351.939240,328.467712 355.628876,330.014709 358.748474,329.532440 
	C356.532074,331.625488 353.438385,330.969025 350.405151,332.072754 
z"/>
<path fill="#8ECAF7" opacity="1.000000" stroke="none" 
	d="
M252.626129,39.402176 
	C248.574219,39.797600 244.057648,39.789135 239.250793,39.472275 
	C243.360840,39.108685 247.761139,39.053490 252.626129,39.402176 
z"/>
<path fill="#A1D2F9" opacity="1.000000" stroke="none" 
	d="
M81.074432,197.418900 
	C82.929733,201.044815 81.665573,205.283920 81.475708,209.735016 
	C81.107918,205.970871 81.049553,201.925247 81.074432,197.418900 
z"/>
<path fill="#DDEEFC" opacity="1.000000" stroke="none" 
	d="
M253.539825,39.845154 
	C253.090790,39.806061 253.098831,39.491135 253.092743,39.333748 
	C256.284027,39.167137 259.481415,39.157909 262.873535,39.530811 
	C260.041779,39.903374 257.015320,39.893810 253.539825,39.845154 
z"/>
<path fill="#E5F3FD" opacity="1.000000" stroke="none" 
	d="
M137.079849,472.404053 
	C137.155487,472.012054 137.497284,472.005127 137.668213,472.003357 
	C137.947571,474.025940 138.752472,476.179779 136.398926,477.954529 
	C135.129532,476.104919 137.384552,474.690460 137.079849,472.404053 
z"/>
<path fill="#D0E9FC" opacity="1.000000" stroke="none" 
	d="
M405.913391,304.682312 
	C405.358337,304.435364 404.882324,303.873016 404.748779,303.132019 
	C405.908386,303.095123 406.041504,303.672974 405.913391,304.682312 
z"/>
<path fill="#D5EBFC" opacity="1.000000" stroke="none" 
	d="
M140.030914,331.385315 
	C140.714737,329.816406 141.189636,331.037659 141.863663,331.701294 
	C141.338821,331.964020 140.730423,331.827423 140.030914,331.385315 
z"/>
<path fill="#E5F3FD" opacity="1.000000" stroke="none" 
	d="
M132.702423,480.819031 
	C132.842773,480.704559 133.168503,480.597809 133.661835,480.456665 
	C133.515564,480.557098 133.201691,480.691956 132.702423,480.819031 
z"/>
<path fill="#D0E9FC" opacity="1.000000" stroke="none" 
	d="
M405.031067,302.684814 
	C404.536987,303.393646 404.078217,303.310211 403.877747,302.304626 
	C404.350647,302.075836 404.660828,302.245605 405.031067,302.684814 
z"/>
<path fill="#D0E9FC" opacity="1.000000" stroke="none" 
	d="
M404.031464,301.685974 
	C403.551208,302.367126 403.111725,302.278046 402.903412,301.295685 
	C403.345184,301.073608 403.657806,301.244232 404.031464,301.685974 
z"/>
<path fill="#E8F4FE" opacity="1.000000" stroke="none" 
	d="
M349.304352,333.028137 
	C348.624542,332.576294 348.721039,332.172424 349.718933,331.947662 
	C349.933105,332.320007 349.754700,332.636841 349.304352,333.028137 
z"/>
<path fill="#D0E9FC" opacity="1.000000" stroke="none" 
	d="
M403.035217,300.693665 
	C402.555603,301.302002 402.116333,301.199432 401.905518,300.281860 
	C402.346436,300.075775 402.660187,300.248322 403.035217,300.693665 
z"/>
<path fill="#D0E9FC" opacity="1.000000" stroke="none" 
	d="
M402.034851,299.693268 
	C401.561584,300.299286 401.131378,300.195740 400.917145,299.279358 
	C401.343445,299.074493 401.658325,299.247162 402.034851,299.693268 
z"/>
<path fill="#D0E9FC" opacity="1.000000" stroke="none" 
	d="
M400.967682,298.620117 
	C400.608551,299.320923 400.175293,299.266998 399.616028,298.462280 
	C399.908203,298.173981 400.375885,298.226868 400.967682,298.620117 
z"/>
<path fill="#E5F3FD" opacity="1.000000" stroke="none" 
	d="
M135.256409,479.091980 
	C135.108521,478.740479 135.235428,478.285370 135.735870,477.922974 
	C135.916672,478.339874 135.723938,478.664093 135.256409,479.091980 
z"/>
<path fill="#FEFEFF" opacity="1.000000" stroke="none" 
	d="
M251.803680,171.016327 
	C236.908493,168.087189 224.345932,171.156876 214.878860,183.286545 
	C208.673050,191.237747 206.752258,200.330704 208.587524,210.116318 
	C209.122086,212.966644 208.909317,215.081299 207.253143,217.527023 
	C193.999298,237.099380 180.807388,256.715363 167.818573,276.464020 
	C165.391800,280.153778 164.083389,279.379089 161.908661,276.498535 
	C134.269333,239.888535 130.193008,200.779022 149.182404,159.104248 
	C150.701584,155.770203 151.773132,155.768463 154.211426,158.301422 
	C160.680099,165.021301 167.390884,171.508240 174.019989,178.073090 
	C174.231461,178.282501 174.602951,178.330338 175.462189,178.686783 
	C177.315598,167.993515 179.161469,157.434174 180.972107,146.868790 
	C182.433548,138.341034 183.899246,129.813461 185.262558,121.269768 
	C185.687332,118.607735 186.978897,116.986244 189.347580,115.576126 
	C254.665863,76.691399 336.211823,111.983452 352.164307,186.344147 
	C356.025940,204.344727 354.970581,222.435318 349.650665,240.153687 
	C349.292755,241.345673 349.214203,242.829697 347.508606,243.897034 
	C341.117432,237.199203 334.667023,230.439301 327.560272,222.991547 
	C324.252106,240.355499 321.153076,256.625031 318.052338,272.894226 
	C317.429413,276.162628 316.257416,279.433777 316.280853,282.696869 
	C316.339355,290.837585 311.361786,295.080566 305.246765,299.005066 
	C262.896790,326.184418 206.751495,321.147644 170.389328,285.772217 
	C165.859756,281.365570 165.797195,281.455505 171.090225,277.901215 
	C190.300858,265.001251 209.502563,252.088043 228.712265,239.186691 
	C230.625305,237.901871 232.378799,236.462784 235.064835,237.071030 
	C257.267242,242.098679 280.373840,221.811111 274.888031,195.524567 
	C274.950714,192.162277 276.235596,189.724075 277.786743,187.292099 
	C288.919769,169.837128 300.020935,152.361618 311.246552,134.664963 
	C293.402313,146.127533 275.672607,157.260101 258.093201,168.627441 
	C256.238892,169.826492 254.310150,170.669479 251.803680,171.016327 
z"/>
<path fill="#FDAA02" opacity="1.000000" stroke="none" 
	d="
M262.036926,207.579559 
	C259.600220,218.046677 252.680862,223.979797 243.308258,224.062988 
	C232.559082,224.158371 224.806473,218.729736 222.380737,209.408829 
	C219.960800,200.110199 223.970337,190.739166 232.370010,186.062103 
	C245.597214,178.696976 261.920929,188.086716 262.080750,203.156219 
	C262.094849,204.484711 262.062683,205.813690 262.036926,207.579559 
z"/>
<path fill="#FEAB05" opacity="1.000000" stroke="none" 
	d="
M251.765320,171.225159 
	C270.029724,159.033905 288.602112,147.065933 307.181427,135.108704 
	C309.831177,133.403397 312.514435,131.750153 315.998535,130.670822 
	C302.430756,151.962997 288.863007,173.255173 275.084045,194.823547 
	C270.833923,183.785019 263.867584,175.292343 251.765320,171.225159 
z"/>
</svg>