<?xml version="1.0" encoding="UTF-8"?>
<!DOCTYPE svg PUBLIC "-//W3C//DTD SVG 1.1//EN" "http://www.w3.org/Graphics/SVG/1.1/DTD/svg11.dtd">
<svg xmlns="http://www.w3.org/2000/svg" version="1.1" width="924px" height="272px" style="shape-rendering:geometricPrecision; text-rendering:geometricPrecision; image-rendering:optimizeQuality; fill-rule:evenodd; clip-rule:evenodd" xmlns:xlink="http://www.w3.org/1999/xlink">
<g><path style="opacity:1" fill="#fefefe" d="M -0.5,-0.5 C 307.5,-0.5 615.5,-0.5 923.5,-0.5C 923.5,90.1667 923.5,180.833 923.5,271.5C 615.5,271.5 307.5,271.5 -0.5,271.5C -0.5,268.167 -0.5,264.833 -0.5,261.5C 0.509906,265.316 2.84324,268.149 6.5,270C 12.8333,270.667 19.1667,270.667 25.5,270C 28,268.833 29.8333,267 31,264.5C 32.3084,236.562 32.9751,208.562 33,180.5C 50.3061,196.048 70.6395,203.715 94,203.5C 104.001,203.601 113.834,202.767 123.5,201C 131.809,222.263 140.309,243.43 149,264.5C 150.938,267.106 153.438,268.939 156.5,270C 164.5,270.667 172.5,270.667 180.5,270C 184.035,267.293 185.202,263.793 184,259.5C 174.304,234.745 164.804,209.912 155.5,185C 155.759,183.739 156.426,182.739 157.5,182C 170.774,179.565 184.108,177.565 197.5,176C 191.487,169.322 185.487,162.655 179.5,156C 202.283,108.582 194.283,67.2488 155.5,32C 125.526,10.8798 93.1932,6.54644 58.5,19C 50.837,22.8294 43.5037,27.1627 36.5,32C 24.4719,34.3372 12.4719,36.6706 0.5,39C 5.68176,44.0147 10.6818,49.1814 15.5,54.5C 7.30587,67.5304 1.97253,81.5304 -0.5,96.5C -0.5,64.1667 -0.5,31.8333 -0.5,-0.5 Z"/></g>
<g><path style="opacity:1" fill="#0a88ee" d="M -0.5,261.5 C -0.5,206.5 -0.5,151.5 -0.5,96.5C 1.97253,81.5304 7.30587,67.5304 15.5,54.5C 10.6818,49.1814 5.68176,44.0147 0.5,39C 12.4719,36.6706 24.4719,34.3372 36.5,32C 43.5037,27.1627 50.837,22.8294 58.5,19C 93.1932,6.54644 125.526,10.8798 155.5,32C 194.283,67.2488 202.283,108.582 179.5,156C 185.487,162.655 191.487,169.322 197.5,176C 184.108,177.565 170.774,179.565 157.5,182C 156.426,182.739 155.759,183.739 155.5,185C 164.804,209.912 174.304,234.745 184,259.5C 185.202,263.793 184.035,267.293 180.5,270C 172.5,270.667 164.5,270.667 156.5,270C 153.438,268.939 150.938,267.106 149,264.5C 140.309,243.43 131.809,222.263 123.5,201C 113.834,202.767 104.001,203.601 94,203.5C 70.6395,203.715 50.3061,196.048 33,180.5C 32.9751,208.562 32.3084,236.562 31,264.5C 29.8333,267 28,268.833 25.5,270C 19.1667,270.667 12.8333,270.667 6.5,270C 2.84324,268.149 0.509906,265.316 -0.5,261.5 Z"/></g>
<g><path style="opacity:1" fill="#fdfefe" d="M 113.5,102.5 C 120.882,89.6154 128.882,77.1154 137.5,65C 136.833,64.3333 136.167,64.3333 135.5,65C 128.167,69.6667 120.833,74.3333 113.5,79C 108.518,82.298 103.852,85.798 99.5,89.5C 87.3504,86.4504 78.8504,90.7837 74,102.5C 73.2401,106.225 73.4068,109.892 74.5,113.5C 66.5297,125.969 58.363,138.302 50,150.5C 33.7239,131.362 29.3906,109.696 37,85.5C 37.9143,83.3359 39.081,81.3359 40.5,79.5C 45.1518,83.6513 49.6518,87.9847 54,92.5C 57.0726,80.334 59.4059,68.0007 61,55.5C 91.1247,38.0877 118.791,41.421 144,65.5C 160.427,85.2905 164.094,107.29 155,131.5C 151.702,127.2 148.035,123.2 144,119.5C 141.023,132.077 138.357,144.744 136,157.5C 120.112,169.452 102.279,173.619 82.5,170C 70.4508,166.95 60.1174,160.95 51.5,152C 62.993,143.753 74.6596,135.753 86.5,128C 104.782,129.216 113.782,120.716 113.5,102.5 Z"/></g>
<g><path style="opacity:1" fill="#fdac15" d="M 113.5,102.5 C 110.742,96.0739 106.075,91.7406 99.5,89.5C 103.852,85.798 108.518,82.298 113.5,79C 120.833,74.3333 128.167,69.6667 135.5,65C 136.167,64.3333 136.833,64.3333 137.5,65C 128.882,77.1154 120.882,89.6154 113.5,102.5 Z"/></g>
<g><path style="opacity:1" fill="#faa90c" d="M 88.5,96.5 C 103.031,95.5855 107.864,101.919 103,115.5C 98.9089,119.305 94.0755,120.472 88.5,119C 86,117.833 84.1667,116 83,113.5C 80.9587,106.351 82.7921,100.685 88.5,96.5 Z"/></g>
<g><path style="opacity:1" fill="#0261ab" d="M 214.5,110.5 C 220.176,110.334 225.843,110.501 231.5,111C 234.494,111.406 236.661,112.906 238,115.5C 238.499,121.491 238.666,127.491 238.5,133.5C 253.324,131.41 266.99,134.243 279.5,142C 284.332,146.832 287.165,152.665 288,159.5C 288.667,176.167 288.667,192.833 288,209.5C 287.348,211.723 285.848,212.89 283.5,213C 276.5,213.667 269.5,213.667 262.5,213C 261.584,212.626 260.75,212.126 260,211.5C 258.699,196.926 258.033,182.26 258,167.5C 256.628,162.473 253.295,160.14 248,160.5C 243.265,160.565 240.265,162.898 239,167.5C 238.967,182.26 238.301,196.926 237,211.5C 235.933,212.191 234.766,212.691 233.5,213C 226.5,213.667 219.5,213.667 212.5,213C 210.951,211.786 209.785,210.286 209,208.5C 208.333,177.5 208.333,146.5 209,115.5C 210.352,113.251 212.185,111.584 214.5,110.5 Z"/></g>
<g><path style="opacity:1" fill="#0562ab" d="M 457.5,110.5 C 477.348,106.016 485.348,113.683 481.5,133.5C 494.86,131.9 507.527,134.067 519.5,140C 526.059,145.284 529.893,152.117 531,160.5C 531.667,176.5 531.667,192.5 531,208.5C 530.167,210.667 528.667,212.167 526.5,213C 519.5,213.667 512.5,213.667 505.5,213C 504.069,212.535 502.903,211.701 502,210.5C 500.715,195.568 500.048,180.568 500,165.5C 496.69,160.915 492.19,159.415 486.5,161C 484.622,162.543 483.122,164.376 482,166.5C 481.667,180.833 481.333,195.167 481,209.5C 479.681,211.487 477.848,212.654 475.5,213C 468.06,213.928 460.726,213.594 453.5,212C 452.107,210.829 451.273,209.329 451,207.5C 450.333,177.167 450.333,146.833 451,116.5C 452.436,113.558 454.603,111.558 457.5,110.5 Z"/></g>
<g><path style="opacity:1" fill="#0662ab" d="M 426.5,123.5 C 426.5,126.833 426.5,130.167 426.5,133.5C 430.833,133.5 435.167,133.5 439.5,133.5C 441.679,133.84 443.512,134.84 445,136.5C 445.667,142.833 445.667,149.167 445,155.5C 444.065,158.102 442.232,159.602 439.5,160C 435.514,160.499 431.514,160.666 427.5,160.5C 427.068,168.279 427.568,175.946 429,183.5C 430.255,184.211 431.421,185.044 432.5,186C 436.25,186.26 439.916,186.927 443.5,188C 444.126,188.75 444.626,189.584 445,190.5C 445.92,197.276 445.586,203.943 444,210.5C 443.167,211.333 442.333,212.167 441.5,213C 426.074,215.634 412.907,211.468 402,200.5C 399.739,196.05 398.072,191.383 397,186.5C 396.5,177.84 396.334,169.173 396.5,160.5C 383.906,163.406 377.906,158.573 378.5,146C 377.735,141.222 379.069,137.222 382.5,134C 387.155,133.501 391.821,133.334 396.5,133.5C 396.335,129.818 396.501,126.152 397,122.5C 398.167,121.333 399.333,120.167 400.5,119C 407.833,118.333 415.167,118.333 422.5,119C 424.751,119.748 426.084,121.248 426.5,123.5 Z"/></g>
<g><path style="opacity:1" fill="#0461ab" d="M 742.5,133.5 C 746.5,133.5 750.5,133.5 754.5,133.5C 754.5,130.833 754.5,128.167 754.5,125.5C 754.444,122.439 755.778,120.272 758.5,119C 765.833,118.333 773.167,118.333 780.5,119C 781.931,119.465 783.097,120.299 784,121.5C 784.499,125.486 784.666,129.486 784.5,133.5C 790.29,133.096 795.956,133.596 801.5,135C 802.126,135.75 802.626,136.584 803,137.5C 803.167,140.333 803.333,143.167 803.5,146C 803.69,150.194 803.023,154.194 801.5,158C 796.068,160.205 790.402,161.038 784.5,160.5C 784.334,166.842 784.5,173.175 785,179.5C 787.447,185.478 791.947,187.978 798.5,187C 800.286,187.785 801.786,188.951 803,190.5C 803.877,197.249 803.544,203.916 802,210.5C 789.759,215.124 777.925,213.957 766.5,207C 759.957,201.753 756.124,194.919 755,186.5C 754.5,177.84 754.334,169.173 754.5,160.5C 750.154,160.666 745.821,160.499 741.5,160C 740.069,159.535 738.903,158.701 738,157.5C 736.504,150.901 736.171,144.234 737,137.5C 738.147,135.181 739.981,133.848 742.5,133.5 Z"/></g>
<g><path style="opacity:1" fill="#7eafd4" d="M 426.5,123.5 C 427.477,126.287 427.81,129.287 427.5,132.5C 431.702,132.183 435.702,132.517 439.5,133.5C 435.167,133.5 430.833,133.5 426.5,133.5C 426.5,130.167 426.5,126.833 426.5,123.5 Z"/></g>
<g><path style="opacity:1" fill="#8db7d9" d="M 754.5,125.5 C 754.5,128.167 754.5,130.833 754.5,133.5C 750.5,133.5 746.5,133.5 742.5,133.5C 745.962,132.518 749.629,132.185 753.5,132.5C 753.198,129.941 753.532,127.607 754.5,125.5 Z"/></g>
<g><path style="opacity:1" fill="#0862ab" d="M 297.5,133.5 C 304.841,133.334 312.174,133.5 319.5,134C 320.931,134.465 322.097,135.299 323,136.5C 323.333,146.5 323.667,156.5 324,166.5C 325.281,171.121 328.281,173.454 333,173.5C 337.484,173.907 340.817,172.241 343,168.5C 343.333,158.167 343.667,147.833 344,137.5C 344.374,136.584 344.874,135.75 345.5,135C 349.72,133.896 354.053,133.396 358.5,133.5C 362.167,133.667 365.833,133.833 369.5,134C 371.815,135.109 373.315,136.943 374,139.5C 374.667,156.167 374.667,172.833 374,189.5C 372.628,207.872 362.794,218.039 344.5,220C 328.833,220.667 313.167,220.667 297.5,220C 296.333,218.833 295.167,217.667 294,216.5C 293.333,212.5 293.333,208.5 294,204.5C 295.109,202.185 296.943,200.685 299.5,200C 312.5,199.667 325.5,199.333 338.5,199C 340.635,198.241 341.968,196.741 342.5,194.5C 332.794,193.893 323.127,193.059 313.5,192C 302.174,189.676 295.674,182.842 294,171.5C 293.333,160.167 293.333,148.833 294,137.5C 295.032,135.973 296.199,134.64 297.5,133.5 Z"/></g>
<g><path style="opacity:1" fill="#0662ab" d="M 539.5,133.5 C 555.061,133.029 570.561,133.696 586,135.5C 600.296,132.506 614.463,133.006 628.5,137C 638.409,141.251 644.242,148.751 646,159.5C 646.667,176.167 646.667,192.833 646,209.5C 644.786,211.049 643.286,212.215 641.5,213C 634.5,213.667 627.5,213.667 620.5,213C 618.667,212.5 617.5,211.333 617,209.5C 616.667,195.5 616.333,181.5 616,167.5C 614.668,162.667 611.502,160.334 606.5,160.5C 606.667,176.17 606.5,191.837 606,207.5C 605.602,210.232 604.102,212.065 601.5,213C 594.5,213.667 587.5,213.667 580.5,213C 579.069,212.535 577.903,211.701 577,210.5C 575.715,195.568 575.048,180.568 575,165.5C 573.326,161.911 570.493,160.245 566.5,160.5C 566.667,176.837 566.5,193.17 566,209.5C 564.833,210.667 563.667,211.833 562.5,213C 554.395,213.934 546.395,213.601 538.5,212C 537.54,210.581 536.707,209.081 536,207.5C 535.333,184.5 535.333,161.5 536,138.5C 536.997,136.677 538.164,135.01 539.5,133.5 Z"/></g>
<g><path style="opacity:1" fill="#0862ab" d="M 655.5,133.5 C 671.17,133.333 686.837,133.5 702.5,134C 720.811,135.978 730.645,146.145 732,164.5C 732.667,178.5 732.667,192.5 732,206.5C 731.55,208.519 730.717,210.352 729.5,212C 725.085,213.069 720.585,213.569 716,213.5C 703.533,213.194 691.033,213.027 678.5,213C 656.387,210.638 647.554,198.471 652,176.5C 654.904,167.93 660.737,162.43 669.5,160C 679.81,158.994 690.144,158.161 700.5,157.5C 699.636,155.803 698.303,154.637 696.5,154C 683.167,153.667 669.833,153.333 656.5,153C 652.463,150.925 650.796,147.592 651.5,143C 651.667,141.167 651.833,139.333 652,137.5C 653.376,136.295 654.542,134.962 655.5,133.5 Z"/></g>
<g><path style="opacity:1" fill="#0962ac" d="M 835.5,133.5 C 843.507,133.334 851.507,133.5 859.5,134C 874.629,135.132 884.129,142.965 888,157.5C 888.667,165.167 888.667,172.833 888,180.5C 887.167,181.333 886.333,182.167 885.5,183C 870.238,184.452 854.905,184.952 839.5,184.5C 839.659,187.654 840.993,190.154 843.5,192C 857.568,192.052 871.568,192.719 885.5,194C 887.941,196.653 888.941,199.82 888.5,203.5C 889.253,207.681 887.92,210.847 884.5,213C 868.5,213.667 852.5,213.667 836.5,213C 819.689,210.192 810.522,200.358 809,183.5C 808.114,174.105 808.447,164.772 810,155.5C 812.237,147.83 816.737,141.997 823.5,138C 827.571,136.37 831.571,134.87 835.5,133.5 Z"/></g>
<g><path style="opacity:1" fill="#f0f5fa" d="M 843.5,154.5 C 851.973,152.221 856.973,155.221 858.5,163.5C 852.167,163.5 845.833,163.5 839.5,163.5C 839.482,159.871 840.816,156.871 843.5,154.5 Z"/></g>
<g><path style="opacity:1" fill="#f7fafc" d="M 686.5,176.5 C 698.155,174.323 702.989,178.99 701,190.5C 695.799,194.893 690.132,195.56 684,192.5C 682.48,188.625 682.146,184.625 683,180.5C 684.102,179.051 685.269,177.718 686.5,176.5 Z"/></g>
</svg>