<?xml version="1.0" encoding="UTF-8"?>
<!DOCTYPE svg PUBLIC "-//W3C//DTD SVG 1.1//EN" "http://www.w3.org/Graphics/SVG/1.1/DTD/svg11.dtd">
<svg xmlns="http://www.w3.org/2000/svg" version="1.1" width="340px" height="464px" style="shape-rendering:geometricPrecision; text-rendering:geometricPrecision; image-rendering:optimizeQuality; fill-rule:evenodd; clip-rule:evenodd" xmlns:xlink="http://www.w3.org/1999/xlink">
<g><path style="opacity:1" fill="#fefefe" d="M -0.5,-0.5 C 112.833,-0.5 226.167,-0.5 339.5,-0.5C 339.5,154.167 339.5,308.833 339.5,463.5C 330.5,463.5 321.5,463.5 312.5,463.5C 317.293,460.911 319.127,456.911 318,451.5C 300.304,406.078 282.804,360.578 265.5,315C 267.538,311.633 270.538,309.967 274.5,310C 295.912,307.251 317.245,304.084 338.5,300.5C 327.399,289.738 317.065,278.405 307.5,266.5C 331.509,220.743 335.009,173.409 318,124.5C 292.455,65.6346 247.955,31.1346 184.5,21C 139.088,15.8492 98.4215,27.1825 62.5,55C 42.4753,58.393 22.4753,61.893 2.5,65.5C 1.06833,65.7332 0.56833,66.3999 1,67.5C 9.87661,76.0419 18.3766,84.8752 26.5,94C 10.9916,118.36 1.99159,144.86 -0.5,173.5C -0.5,115.5 -0.5,57.5 -0.5,-0.5 Z"/></g>
<g><path style="opacity:1" fill="#0787ed" d="M 312.5,463.5 C 296.833,463.5 281.167,463.5 265.5,463.5C 260.246,461.414 256.412,457.748 254,452.5C 240.221,415.826 226.054,379.326 211.5,343C 154.332,357.702 102.999,346.536 57.5,309.5C 57.44,308.957 57.1067,308.624 56.5,308.5C 55.5001,356.829 55.1667,405.162 55.5,453.5C 54.6325,458.359 51.9658,461.692 47.5,463.5C 34.5,463.5 21.5,463.5 8.5,463.5C 4.5,461.5 1.5,458.5 -0.5,454.5C -0.5,360.833 -0.5,267.167 -0.5,173.5C 1.99159,144.86 10.9916,118.36 26.5,94C 18.3766,84.8752 9.87661,76.0419 1,67.5C 0.56833,66.3999 1.06833,65.7332 2.5,65.5C 22.4753,61.893 42.4753,58.393 62.5,55C 98.4215,27.1825 139.088,15.8492 184.5,21C 247.955,31.1346 292.455,65.6346 318,124.5C 335.009,173.409 331.509,220.743 307.5,266.5C 317.065,278.405 327.399,289.738 338.5,300.5C 317.245,304.084 295.912,307.251 274.5,310C 270.538,309.967 267.538,311.633 265.5,315C 282.804,360.578 300.304,406.078 318,451.5C 319.127,456.911 317.293,460.911 312.5,463.5 Z"/></g>
<g><path style="opacity:1" fill="#fdfefe" d="M 192.5,173.5 C 193.397,174.598 194.23,174.598 195,173.5C 207.917,152.664 221.084,131.997 234.5,111.5C 233.998,110.479 233.332,110.312 232.5,111C 211.658,124.363 190.991,137.863 170.5,151.5C 148.694,147.315 134.194,155.648 127,176.5C 126.258,182.199 126.425,187.866 127.5,193.5C 113.593,216.308 98.9267,238.641 83.5,260.5C 56.4346,227.333 49.6013,190.333 63,149.5C 64.6394,144.888 66.8061,140.554 69.5,136.5C 77.5,144.167 85.5,151.833 93.5,159.5C 97.4913,139.218 101.158,118.885 104.5,98.5C 127.206,83.3305 152.206,77.4971 179.5,81C 230.558,91.0581 261.391,121.558 272,172.5C 274.165,190.376 272.165,207.71 266,224.5C 259.698,217.197 253.032,210.197 246,203.5C 241.209,226.456 236.542,249.456 232,272.5C 211.929,288.636 188.929,296.636 163,296.5C 132.045,295.77 105.878,284.27 84.5,262C 105.994,247.086 127.66,232.419 149.5,218C 180.186,220.977 195.019,207.143 194,176.5C 192.961,175.756 192.461,174.756 192.5,173.5 Z"/></g>
<g><path style="opacity:1" fill="#feaa0c" d="M 192.5,173.5 C 188.856,162.522 181.522,155.189 170.5,151.5C 190.991,137.863 211.658,124.363 232.5,111C 233.332,110.312 233.998,110.479 234.5,111.5C 221.084,131.997 207.917,152.664 195,173.5C 194.23,174.598 193.397,174.598 192.5,173.5 Z"/></g>
<g><path style="opacity:1" fill="#fca905" d="M 153.5,164.5 C 165.756,162.075 174.589,166.408 180,177.5C 182.003,196.497 173.503,205.33 154.5,204C 141.205,197.453 137.372,187.286 143,173.5C 146.103,169.886 149.603,166.886 153.5,164.5 Z"/></g>
<g><path style="opacity:1" fill="#80c3f5" d="M 57.5,309.5 C 56.8333,357.5 56.1667,405.5 55.5,453.5C 55.1667,405.162 55.5001,356.829 56.5,308.5C 57.1067,308.624 57.44,308.957 57.5,309.5 Z"/></g>
<g><path style="opacity:1" fill="#fefefe" d="M 57.5,309.5 C 102.999,346.536 154.332,357.702 211.5,343C 226.054,379.326 240.221,415.826 254,452.5C 256.412,457.748 260.246,461.414 265.5,463.5C 192.833,463.5 120.167,463.5 47.5,463.5C 51.9658,461.692 54.6325,458.359 55.5,453.5C 56.1667,405.5 56.8333,357.5 57.5,309.5 Z"/></g>
<g><path style="opacity:1" fill="#f7fbfe" d="M -0.5,454.5 C 1.5,458.5 4.5,461.5 8.5,463.5C 5.5,463.5 2.5,463.5 -0.5,463.5C -0.5,460.5 -0.5,457.5 -0.5,454.5 Z"/></g>
</svg>