<svg version="1.1" id="Layer_1" xmlns="http://www.w3.org/2000/svg" xmlns:xlink="http://www.w3.org/1999/xlink" x="0px" y="0px"
	 width="100%" viewBox="0 0 500 500" enable-background="new 0 0 500 500" xml:space="preserve">
<path fill="#FEFFFF" opacity="1.000000" fill-opacity="0" stroke="none" 
	d="
M268.000000,501.000000 
	C180.000015,501.000000 92.500000,500.974335 5.000196,501.095825 
	C1.576079,501.100586 0.903036,500.423828 0.905301,497.000000 
	C1.013778,333.000092 1.013773,169.000122 0.905335,5.000244 
	C0.903071,1.576938 1.575801,0.903022 4.999879,0.905287 
	C168.999756,1.013775 332.999725,1.013761 496.999634,0.905353 
	C500.422668,0.903090 501.096985,1.575433 501.094727,4.999759 
	C500.986206,168.999634 500.986237,332.999603 501.094604,496.999512 
	C501.096893,500.422272 500.425568,501.101898 497.000275,501.096222 
	C420.833679,500.970520 344.666809,501.000000 268.000000,501.000000 
z"/>
<path fill="#0287EE" opacity="1.000000" stroke="none" 
	d="
M392.399475,324.340820 
	C380.750305,325.961212 369.537323,327.490021 358.326752,329.036438 
	C356.513062,329.286621 354.671814,329.469879 352.909607,329.935242 
	C347.691986,331.312988 346.361176,333.989960 348.270630,338.950348 
	C364.932587,382.234222 381.598785,425.516449 398.250458,468.804260 
	C401.844727,478.147888 398.650879,482.754578 388.557892,482.781403 
	C377.225861,482.811554 365.893677,482.805695 354.561584,482.783081 
	C343.297089,482.760620 338.223907,479.290009 334.173676,468.763306 
	C321.040649,434.630005 307.941040,400.483856 294.801422,366.353058 
	C293.908630,364.034088 293.833649,361.626526 289.529907,362.669586 
	C234.218872,376.074310 183.962509,366.012573 139.579010,329.597839 
	C139.067139,329.177856 138.520340,328.800415 137.755569,328.227692 
	C136.585983,329.931458 137.118210,331.762390 137.116806,333.424774 
	C137.078705,378.586548 137.089798,423.748352 137.082474,468.910156 
	C137.080887,478.708893 133.860062,482.198151 124.052650,482.415009 
	C114.225220,482.632355 104.387238,482.645386 94.558868,482.469574 
	C85.262627,482.303314 81.671120,478.528442 81.668396,469.188080 
	C81.644325,386.530304 81.567192,303.872345 81.724854,221.214905 
	C81.760017,202.779144 80.998070,184.297012 85.660042,166.075684 
	C90.156937,148.499557 96.744110,131.922974 106.426537,116.632912 
	C108.390404,113.531639 108.023117,111.915619 105.534416,109.546631 
	C98.656212,102.999321 92.016068,96.200470 85.343750,89.439926 
	C84.367569,88.450836 82.426224,87.689232 83.004913,86.017326 
	C83.486061,84.627251 85.335709,85.120483 86.600105,84.902466 
	C104.143005,81.877594 121.686722,78.857155 139.238266,75.883041 
	C142.097488,75.398544 144.533768,74.243050 146.866089,72.499397 
	C175.183624,51.329102 206.889923,40.720814 242.391510,39.594482 
	C322.424042,37.055355 393.313690,94.903770 407.581970,173.716888 
	C414.505249,211.958664 409.048431,248.651672 390.163666,282.933258 
	C388.407593,286.120972 388.976929,287.672394 391.277252,290.009125 
	C399.691833,298.556793 407.881012,307.326599 416.135376,316.031464 
	C417.356018,317.318665 418.470337,318.706696 420.113403,320.600983 
	C410.500580,321.888733 401.668518,323.071899 392.399475,324.340820 
z"/>
<path fill="#FEFFFF" opacity="1.000000" stroke="none" fill-opacity="0.8"
	d="
M251.986343,170.795593 
	C238.642853,168.481796 226.785553,170.289032 217.226227,180.373047 
	C209.040558,189.007996 206.562042,199.352386 208.555710,210.833557 
	C208.991348,213.342377 208.753250,215.207748 207.324829,217.323898 
	C194.007690,237.052765 180.747665,256.820740 167.600906,276.663422 
	C165.697815,279.535828 164.487411,279.817993 162.277023,277.027527 
	C147.370834,258.209503 138.740402,237.132599 137.884354,212.893402 
	C137.224167,194.200165 140.561508,176.519501 148.715622,159.667374 
	C150.571274,155.832306 151.783035,155.583832 154.703293,158.715652 
	C161.161011,165.641220 167.958145,172.250305 175.418808,179.800034 
	C177.062744,170.328384 178.538773,161.944580 179.969147,153.552979 
	C181.786011,142.893890 183.649338,132.241455 185.309113,121.557640 
	C185.786896,118.482117 187.252228,116.637314 189.890656,115.063034 
	C253.585434,77.057510 337.129822,111.905098 352.132233,187.139771 
	C355.614075,204.600693 354.596313,221.905823 349.751343,239.004654 
	C349.304993,240.579910 348.634369,242.091644 347.826477,244.289810 
	C340.991241,237.103836 334.513580,230.293793 327.381744,222.796021 
	C325.565765,232.160522 323.865814,240.799805 322.218903,249.449188 
	C319.823364,262.030273 317.288788,274.589417 315.202972,287.222198 
	C314.596161,290.897491 312.907867,293.164917 310.081329,295.238098 
	C269.940460,324.679962 215.801392,323.248260 177.139114,291.656921 
	C165.126846,281.841583 165.130096,281.846375 177.783203,273.335968 
	C194.771774,261.909607 211.756958,250.478149 228.736908,239.038956 
	C230.531937,237.829697 232.168869,236.649643 234.652267,237.219269 
	C258.243744,242.630524 281.360046,221.616058 275.009399,194.722565 
	C277.679779,187.044083 282.568329,181.060257 286.608124,174.611237 
	C295.270111,160.783386 304.227356,147.139587 313.645813,132.211838 
	C307.426880,136.013290 302.301086,139.392288 297.182648,142.730225 
	C283.651917,151.554077 269.868866,159.981476 256.377777,168.864792 
	C255.118835,169.693726 253.857025,170.493317 251.986343,170.795593 
z"/>
<path fill="#FDAA02" opacity="1.000000" stroke="none" 
	d="
M249.582993,184.988098 
	C266.142914,192.646652 265.502686,213.786362 252.345795,221.495087 
	C245.273621,225.638687 235.741989,225.056381 229.021011,219.716354 
	C222.659439,214.661835 219.989273,204.967026 222.802490,197.138046 
	C225.748367,188.939896 232.703644,183.983734 241.344254,183.936066 
	C243.999969,183.921417 246.674423,183.775253 249.582993,184.988098 
z"/>
<path fill="#FEAB05" opacity="1.000000" stroke="none" 
	d="
M251.988708,171.068573 
	C269.394684,159.452698 287.134430,148.005463 304.880341,136.567749 
	C308.320435,134.350525 311.784393,132.170395 315.949188,130.654083 
	C302.498444,151.737808 289.047699,172.821533 275.310822,194.111206 
	C270.905548,183.233704 263.696655,175.189529 251.988708,171.068573 
z"/>
</svg>